<?xml version="1.0" standalone="no"?><!DOCTYPE svg PUBLIC "-//W3C//DTD SVG 1.1//EN" "http://www.w3.org/Graphics/SVG/1.1/DTD/svg11.dtd"><svg t="1741940717524" class="icon" viewBox="0 0 1024 1024" version="1.1" xmlns="http://www.w3.org/2000/svg" p-id="984" xmlns:xlink="http://www.w3.org/1999/xlink" width="200" height="200"><path d="M511.82 516.41m-399 0a399 399 0 1 0 798 0 399 399 0 1 0-798 0Z" fill="#E2EDFF" p-id="985"></path><path d="M325.39 401.39h-4.76c-8.28 0-15-6.72-15-15s6.72-15 15-15h4.76c8.28 0 15 6.72 15 15s-6.72 15-15 15zM325.39 661.43h-4.76c-8.28 0-15-6.72-15-15s6.72-15 15-15h4.76c8.28 0 15 6.72 15 15s-6.72 15-15 15zM325.39 530.97h-4.76c-8.28 0-15-6.72-15-15s6.72-15 15-15h4.76c8.28 0 15 6.72 15 15s-6.72 15-15 15zM703 401.39H382.07c-8.28 0-15-6.72-15-15s6.72-15 15-15H703c8.28 0 15 6.72 15 15s-6.72 15-15 15zM703 661.43H382.07c-8.28 0-15-6.72-15-15s6.72-15 15-15H703c8.28 0 15 6.72 15 15s-6.72 15-15 15zM703 530.97H382.07c-8.28 0-15-6.72-15-15s6.72-15 15-15H703c8.28 0 15 6.72 15 15s-6.72 15-15 15z" fill="#272C33" p-id="986"></path></svg>